<svg width="65" height="48" viewBox="0 0 65 48" fill="none" xmlns="http://www.w3.org/2000/svg">
<path d="M28.8503 5.85149C29.2239 5.05576 31.7451 0.375 39.1228 0.375C57.2867 0.375 47.3878 41.6126 63.8708 41.6126" stroke="#09090A" stroke-width="0.733863" stroke-linecap="round" stroke-linejoin="round"/>
<path d="M8.25739 45.0741C1.11322 41.3762 -1.68826 32.6232 2.00056 25.4616C4.24187 21.1085 8.39743 18.3468 12.88 17.6915L14.9346 13.7129L29.83 21.3894L27.7754 25.368C29.8767 29.4403 30.0634 34.4019 27.7754 38.755C24.0866 45.9166 15.3548 48.7251 8.21065 45.0741H8.25739Z" stroke="#09090A" stroke-width="0.733863" stroke-linecap="round" stroke-linejoin="round"/>
<path d="M36.3222 29.7746L4.52368 13.3919L21.6135 2.06445L35.5285 9.22604L36.3222 29.7746Z" stroke="#09090A" stroke-width="0.733863" stroke-linecap="round" stroke-linejoin="round"/>
<path d="M10.8624 16.6744L24.4038 3.47461M17.2127 19.9509L27.1585 4.92564M23.5633 23.2274L29.9604 6.37668M29.9136 26.504L32.7151 7.78091M35.7036 14.3808L17.3062 4.92564M35.8903 19.5297L13.0104 7.73411M36.124 24.6785L8.80786 10.5894" stroke="#09090A" stroke-width="0.733863" stroke-miterlimit="10"/>
<path d="M4.98316 44.377H24.7349L25.8555 47.4663H3.86255L4.98316 44.377Z" stroke="#09090A" stroke-width="0.733863" stroke-linecap="round" stroke-linejoin="round"/>
</svg>
